<svg width="201" height="109" viewBox="0 0 201 109" fill="none" xmlns="http://www.w3.org/2000/svg">
<path d="M9.17 35.4744C13.1117 30.7766 17.5077 26.7555 21.9021 22.7356C24.0502 20.7702 26.1982 18.8041 28.348 16.7006C28.3496 16.6984 28.389 16.6423 28.4319 16.5812L28.4334 16.5822C28.75 16.1311 29.0682 15.6795 29.8692 15.6721H29.874C30.675 15.6675 30.9994 16.1149 31.3224 16.5634C31.3603 16.616 31.3984 16.6692 31.4048 16.6753C32.7345 17.9404 33.9154 19.5465 35.0963 21.1518C37.2286 24.0545 39.3639 26.9572 41.9316 27.0859C44.1193 27.1962 45.6231 25.6756 46.9464 23.5853C47.1032 23.2763 47.2567 22.9669 47.4087 22.6588C48.2953 20.8793 49.1531 19.1542 50.1646 17.7934C51.5815 15.3842 53.2579 13.197 55.7937 12.0605C55.8159 12.0509 55.8175 12.0361 55.8635 12.0014C56.3321 11.6536 56.8006 11.3041 57.6207 11.6629H57.6253C58.3092 11.9645 58.4738 12.4887 58.6384 13.0131C58.6654 13.1018 58.6921 13.1912 58.7018 13.2128L58.7033 13.2119C59.4332 14.6635 60.0108 16.6305 60.5586 18.6973C61.6588 20.6528 62.3885 23.17 63.1199 25.6875C63.3209 26.3834 63.522 27.0789 63.7309 27.7584C64.038 28.0444 64.3657 28.1269 64.7203 27.9241C66.8177 26.7254 69.5278 22.903 72.165 18.4873C73.965 14.5115 75.6588 10.8076 78.1567 7.47774C78.7598 6.29821 79.3043 5.21256 79.7777 4.27093C81.0868 1.66862 81.9305 -0.0103664 82.7727 4.81745e-05C84.286 0.0192408 86.374 3.98944 89.0065 8.99827L89.0999 9.17249C91.1055 12.0985 92.842 15.5571 94.539 19.0432C96.8914 22.9357 99.2531 26.1444 101.199 27.0007C102.21 27.4446 103.239 27.4106 104.279 27.048C104.732 26.6219 105.185 26.1871 105.637 25.7526C107.865 23.6129 110.09 21.4735 112.481 20.2707C113.957 18.8069 115.449 17.4314 117.011 16.4483C117.021 16.4425 117.049 16.4092 117.095 16.3635C117.521 15.9497 117.948 15.5346 118.803 15.777C119.56 15.9917 119.775 16.5173 119.994 17.0412C120.027 17.1227 120.058 17.2041 120.073 17.226C121.166 18.9621 122.059 21.0132 122.924 23.1132C124.484 25.2948 125.651 28.1549 126.818 31.0168C126.938 31.3095 127.057 31.6024 127.177 31.8936C128.109 33.1253 129.168 34.0057 130.441 34.3126C131.909 34.6681 133.337 34.0829 134.742 33.0068C135.847 31.8502 136.955 30.7047 138.106 29.6887C138.511 29.2254 138.918 28.7518 139.325 28.2766C140.933 26.3966 142.541 24.5163 144.287 23.183C144.3 23.1737 144.324 23.1377 144.37 23.0833L144.375 23.0848C144.751 22.6547 145.131 22.2256 145.966 22.3535V22.3496C146.751 22.4687 147.017 22.9663 147.281 23.461C147.314 23.5255 147.349 23.5882 147.368 23.6121C148.299 24.795 149.073 26.3547 149.847 27.9149C151.153 30.5488 152.459 33.1808 154.074 33.0086C156.848 32.7099 158.705 31.4691 160.309 29.8235L160.352 29.7663C161.452 28.2872 162.505 26.8763 163.72 25.7267C165.346 23.7269 167.206 21.7011 169.964 20.0882L169.967 20.0839C169.978 20.079 169.978 20.0729 169.999 20.0571C170.315 19.7896 170.633 19.5215 171.263 19.5813H171.268C171.887 19.6396 172.156 19.9524 172.424 20.2649C172.447 20.2941 172.455 20.3075 172.463 20.3148C173.994 21.6086 175.045 23.3758 175.873 25.2574C177.033 26.6458 177.769 28.5383 178.555 30.5568C179.063 31.8634 179.596 33.2322 180.294 34.509C180.723 34.631 181.225 34.5639 181.831 34.253C186.675 31.7609 188.705 24.7182 190.762 17.579C192.072 13.0421 193.389 8.46579 195.472 4.80193C195.86 4.12304 196.482 3.89779 197.183 3.9881V3.98914C197.497 4.0308 197.815 4.14477 198.109 4.30887C198.37 4.45542 198.625 4.64452 198.845 4.85608C199.526 5.51295 199.95 6.45859 199.608 7.33625C196.77 14.64 193.322 21.5108 189.876 28.38C188.182 31.7529 186.492 35.125 184.814 38.6763C184.79 38.7291 184.754 38.8622 184.719 38.9959C184.533 39.6937 184.348 40.3928 183.436 40.6533C182.401 40.9518 181.942 40.3489 181.485 39.7468C181.415 39.6559 181.345 39.5651 181.33 39.5516C180.28 38.6638 179.458 37.6529 178.781 36.5836C177.963 36.08 177.302 35.1946 176.721 34.0633C176.128 32.908 175.65 31.5072 175.14 30.0151C174.773 28.9361 174.387 27.8062 173.937 26.7204C173.179 25.8992 172.224 25.3815 170.906 25.3373C168.48 25.2567 166.76 26.1474 165.288 27.5201C165.042 27.8245 164.803 28.1283 164.564 28.4285C163.736 29.4771 162.93 30.4928 162.058 31.4107C160.235 33.8569 158.235 36.4625 155.031 38.3382V38.3428L154.969 38.3951C154.585 38.7372 154.199 39.0795 153.437 38.9089H153.431C152.733 38.7512 152.494 38.3149 152.255 37.879C152.223 37.8214 152.191 37.7631 152.185 37.7545C151.269 36.5915 150.501 35.057 149.733 33.5213C148.437 30.9285 147.14 28.3348 145.51 28.4545C143.464 28.605 141.578 29.7843 139.754 31.3773C138.619 32.6638 137.468 33.8748 136.259 34.8238L136.142 34.9463C134.543 36.6241 132.942 38.301 131.212 39.6235C131.209 39.625 131.158 39.6852 131.106 39.7449C130.688 40.2324 130.269 40.7192 129.352 40.5093C128.527 40.321 128.296 39.7499 128.065 39.1797V39.175C128.027 39.081 127.991 38.9877 127.975 38.9642C126.878 37.2239 125.982 35.1715 125.114 33.0707C123.546 30.8969 122.379 28.0253 121.211 25.153C121.094 24.8634 120.977 24.5751 120.858 24.2862C119.914 23.0263 118.838 22.1195 117.545 21.7941C116.296 21.4784 115.058 21.6976 113.828 22.258C113.521 22.5648 113.213 22.8753 112.906 23.1862C110.48 25.6401 108.052 28.0949 105.46 29.1632C104.192 30.3333 102.908 31.4237 101.569 32.2661H101.564C101.541 32.2803 101.539 32.2995 101.488 32.3465C101.075 32.7471 100.659 33.1459 99.8197 32.9252C99.079 32.7299 98.8542 32.2258 98.6294 31.7209H98.6278C98.5977 31.6526 98.5677 31.5843 98.544 31.5505L98.5472 31.5483C96.5209 28.5133 94.759 24.882 92.9829 21.2225C92.7898 20.8229 92.5966 20.424 92.402 20.0242C90.5199 16.9104 88.6961 13.4603 87.0832 10.3903C85.7867 8.51682 84.3873 6.9097 82.8266 5.73686C81.8228 6.6959 80.9349 7.71028 80.1321 8.77213C78.4987 11.9675 76.4725 15.8091 74.3495 19.3668L74.2165 19.6631C72.3091 23.8733 70.2654 28.3883 67.0077 33.08C66.954 33.1567 66.8857 33.3182 66.8177 33.4805C66.4585 34.3303 66.0991 35.1821 64.8944 35.0637C63.7437 34.9485 63.5028 34.0759 63.2608 33.203C63.2101 33.0161 63.1579 32.8299 63.1182 32.7494L63.1167 32.7509C62.5452 31.6146 62.0766 30.322 61.6478 28.968C61.4784 28.7377 61.3168 28.4837 61.16 28.2104L61.1585 28.2113C60.1296 26.4091 59.3997 23.5938 58.6732 20.7787C58.5719 20.3881 58.4706 19.9961 58.3677 19.6081C57.7028 18.5074 56.9067 17.7314 55.9014 17.4841C54.2805 17.0882 53.0489 17.9316 51.9678 19.3754C51.5514 20.1046 51.1525 20.8562 50.7584 21.5991C50.1726 22.7054 49.5948 23.7955 48.976 24.795C47.3897 27.9328 45.5946 31.0475 42.5473 32.4139C42.5251 32.4243 42.5504 32.4161 42.533 32.4289V32.4332C42.2007 32.6576 41.8681 32.8825 41.2526 32.7611C40.6841 32.6506 40.4421 32.3396 40.203 32.03C40.1792 31.9998 40.1681 31.9824 40.1618 31.9768C38.8336 30.7126 37.6622 28.975 36.4908 27.2372C34.4473 24.2043 32.4035 21.1725 30.1858 21.7328C26.0067 22.7914 22.7758 27.0553 19.5164 31.3575C17.2464 34.3523 14.9622 37.3654 12.2362 39.5141C11.6807 39.9527 11.0743 39.9481 10.4855 39.6434C10.1912 39.49 9.91093 39.2463 9.66876 38.954H9.66236C9.45828 38.707 9.27145 38.4136 9.12567 38.1126C8.69356 37.2275 8.58899 36.1667 9.17 35.4744Z" fill="#F3BD53"/>
<path d="M13.0218 40.82C14.0843 41.3834 15.177 42.1582 16.265 42.9302C16.5613 43.1411 16.7493 43.4681 16.8781 43.8226C17.3513 44.0886 17.834 44.3368 18.2944 44.5582C18.8837 43.4949 19.7518 41.6735 20.6709 39.7429C23.1112 34.6192 25.8413 28.8885 28.9588 28.8626C32.1412 28.8359 33.9095 32.1852 35.9003 35.9615C37.4918 38.9788 39.3124 42.428 40.5183 42.4921C41.3068 42.5339 42.6018 41.9133 44.0942 41.0028C44.3173 40.7991 44.5387 40.5945 44.7569 40.3918C47.2911 38.0433 49.6807 35.8296 52.7659 35.1468C54.9085 33.8862 56.8294 33.2325 58.4734 33.9972C59.7668 34.5993 60.603 35.9676 61.2688 37.7218C63.209 40.0399 64.1773 43.5646 65.1411 47.0933C66.8217 44.8858 68.9656 40.3613 71.0652 35.4368L71.4839 34.1936C73.448 28.3526 75.2877 22.8802 77.6948 19.0725C79.0837 15.913 80.3754 13.8989 82.0448 13.9217C83.8193 13.9455 85.4138 16.0479 87.1404 19.1769C90.3916 23.1209 92.819 28.7982 95.2037 34.3748C95.3932 34.8167 95.5812 35.2583 95.7708 35.6972C97.4624 38.5201 99.0616 40.677 100.314 41.2603C100.654 41.4197 101.03 41.4441 101.432 41.3591C101.752 41.0378 102.071 40.7125 102.391 40.3864C104.559 38.1779 106.727 35.9702 109.126 34.6197C110.467 33.2234 111.833 31.9088 113.302 30.8987C114.087 30.0916 114.895 29.3111 116.763 29.8714C118.336 30.3445 118.705 31.2784 119.07 32.2145L119.055 32.1971L119.067 32.2158L119.07 32.215L119.073 32.2257L119.075 32.2277C120.128 34.018 120.976 36.0637 121.789 38.1544C123.31 40.4801 124.43 43.3879 125.548 46.296L125.824 47.0131C126.416 47.7971 127.047 48.3341 127.734 48.5101C128.395 48.6799 129.146 48.3627 129.954 47.7439C131.02 46.5609 132.09 45.388 133.21 44.3301C133.552 43.915 133.897 43.4894 134.239 43.0637C135.776 41.161 137.312 39.2572 139.051 37.8075C139.747 36.9685 140.448 36.1344 142.31 36.4369C143.992 36.7095 144.449 37.6184 144.905 38.5271L144.902 38.529C145.853 39.8382 146.606 41.448 147.358 43.0566C148.306 45.084 149.253 47.1104 149.48 47.143C152.122 46.8409 154.727 45.443 157.315 43.6191C158.702 42.4492 160.103 41.3315 161.547 40.3598L162.24 39.7983C164.541 37.9315 166.839 36.0652 169.313 34.5124C169.901 33.9895 170.519 33.4915 171.893 33.6325C173.223 33.7681 173.728 34.3568 174.213 34.9547L174.265 35.0089C176.858 37.4269 178.512 40.9573 179.987 44.1034C180.57 45.3487 181.122 46.5263 181.639 47.4218C181.751 47.6164 181.756 47.8445 181.729 48.0528L181.744 48.084C183.23 45.5836 186.089 40.1217 188.767 34.7877C188.985 34.3526 189.209 33.9304 189.439 33.5189C192.104 26.9331 194.466 21.2588 195.591 20.3575C197.16 19.0948 198.587 19.2128 199.858 20.7968C200.248 21.2816 200.071 22.6551 199.503 24.5773C199.517 24.6626 199.493 24.7517 199.421 24.8434C198.579 27.5885 196.988 31.369 195.109 35.2727L194.079 37.8244C190.286 47.2211 186.103 57.586 183.798 58.2899C180.387 59.3306 178.792 55.8387 176.817 51.5158C175.117 47.7955 172.937 43.0215 171.285 42.9633C169.187 42.8887 167.064 43.8164 164.929 45.2288C163.599 46.3035 162.262 47.3608 160.898 48.3356C160.241 48.891 159.587 49.4615 158.93 50.032C156.616 52.043 154.303 54.0556 151.788 55.6434C151.066 56.3199 150.326 56.9746 148.647 56.5771C147.159 56.2218 146.738 55.4084 146.319 54.5961V54.5955C145.37 53.2858 144.634 51.7236 143.897 50.1611C142.935 48.12 141.972 46.0793 141.708 46.0994C140.317 46.208 138.897 47.1553 137.461 48.4719C136.354 49.8023 135.223 51.0621 134.017 52.0825C132.524 53.7437 131.025 55.4028 129.33 56.8006C128.57 57.7363 127.804 58.666 125.786 58.1768C124.051 57.7551 123.665 56.7423 123.278 55.7295C123.277 55.7247 123.278 55.7252 123.28 55.7286L123.288 55.7252C122.264 53.9871 121.411 51.9433 120.591 49.8426C119.033 47.5093 117.902 44.5615 116.773 41.6141L116.486 40.8685C115.884 40.0738 115.239 39.5256 114.532 39.3366C113.933 39.1768 113.289 39.2676 112.615 39.5418C112.408 39.7623 112.2 39.9847 111.993 40.2074C109.591 42.7836 107.189 45.3589 104.519 46.6231C103.412 47.6897 102.278 48.6885 101.075 49.5114C100.311 50.2914 99.5268 51.0465 97.6903 50.5308C97.617 50.5106 97.5451 50.4874 97.4751 50.4616C96.0798 49.9994 95.7182 49.1396 95.3582 48.2798C95.3551 48.2764 95.3566 48.2764 95.3582 48.2792L95.3677 48.275C93.5168 45.3165 91.9127 41.7082 90.3166 37.9913C88.1535 34.3741 86.0923 30.2192 84.3019 26.6103C83.7987 25.5948 83.4736 24.6382 83.2458 23.7811C82.9654 23.3979 82.6804 23.0372 82.3904 22.7003C82.1835 23.0514 81.978 23.4238 81.7754 23.8169C81.7469 24.4253 81.6292 25.0845 81.3551 25.7804C80.0187 29.1827 78.4146 33.2615 76.6958 37.2412C74.4913 43.7844 72.0782 50.675 68.6215 55.9527C68.593 55.9984 68.6263 55.9743 68.5994 56.0411C68.0035 57.5391 67.4062 59.0379 64.8623 58.7697C62.4921 58.5191 62.1049 57.0386 61.7195 55.5584C61.694 55.4611 61.71 55.4486 61.6894 55.4062C61.2593 54.5013 60.8912 53.5127 60.5551 52.4788C60.216 52.0801 59.8941 51.6251 59.5899 51.1218C58.33 49.0427 57.5318 46.0909 56.7959 43.3729C56.573 42.5462 56.4424 41.7906 56.35 41.1629C56.2496 41.1007 56.146 41.0549 56.041 41.0279C55.372 40.8546 54.7252 40.8685 54.0912 41.0226C53.5975 41.5268 52.9921 42.0874 52.2466 42.6177C50.7875 43.6536 49.2488 44.7455 47.7069 45.6985C46.036 47.2163 44.2392 48.7127 42.0299 49.8023C41.4023 50.2507 40.7493 50.6777 39.3872 50.3937C39.3205 50.3798 39.2535 50.3635 39.1882 50.345C38.1114 50.0699 37.6972 49.5278 37.2974 48.9816C35.6616 47.3057 34.1674 45.2482 32.6653 43.1793C31.5024 41.5756 30.3318 39.9636 29.1959 38.6677C28.7485 39.4681 28.2418 40.4888 27.6892 41.6049C26.3686 44.2682 24.8331 47.364 22.565 50.2248C22.3817 50.4547 22.1715 50.6503 21.942 50.8104V50.8113C21.9244 50.8241 21.9054 50.8358 21.8862 50.8477C20.9336 51.4879 19.7295 51.5016 18.7818 50.9656C17.9772 50.7989 17.106 50.5198 16.2491 50.126C14.6115 49.3751 12.6428 48.2991 11.1645 47.1239C10.4111 46.5245 9.74379 45.8614 9.23387 45.1411C8.29407 43.8103 8.61121 41.9693 9.94118 41.0282C10.8779 40.3659 12.0677 40.327 13.0187 40.8265L13.0218 40.82ZM119.07 32.2145V32.215V32.2145ZM119.073 32.2132C119.076 32.2202 119.075 32.2197 119.07 32.215L119.073 32.2132ZM119.025 32.1534C118.995 32.1078 118.968 32.0672 119.017 32.1514L119.021 32.1569L119.025 32.1534ZM144.905 38.5271C144.899 38.5206 144.741 38.3105 144.827 38.4256L144.902 38.529L144.905 38.5271ZM146.319 54.5961L146.407 54.7139C146.377 54.6747 146.348 54.6355 146.319 54.5955V54.5961ZM123.28 55.7286C123.297 55.748 123.375 55.8725 123.32 55.778L123.288 55.7252L123.28 55.7286ZM95.3582 48.2792C95.3789 48.3005 95.5014 48.4876 95.4219 48.3607L95.3677 48.275L95.3582 48.2792Z" fill="#92D5D9"/>
<path d="M30.5052 100.217H36.6165L34.6305 65.8824H26.4813L21.7463 79.6345C21.0827 81.6615 20.4627 83.6947 19.8874 85.7352C19.3121 87.7747 18.7946 89.7323 18.3335 91.6073H18.1819C17.7467 89.6901 17.2655 87.7281 16.7362 85.7226C16.2058 83.716 15.6365 81.7039 15.0235 79.6854L10.5414 65.8824H2.29238L0 100.217H5.85686L6.61994 86.4101C6.70533 84.8367 6.78491 83.2109 6.85854 81.5326C6.93217 79.8538 7.00015 78.1863 7.06233 76.53C7.1245 74.8738 7.18073 73.2933 7.23145 71.7877H7.33409C7.79655 73.9428 8.32268 76.1551 8.91232 78.424C9.50226 80.6937 10.1309 82.9307 10.7973 85.1367L15.3805 99.81H20.1679L25.2093 84.9329C25.9769 82.7517 26.7068 80.5422 27.3991 78.3031C28.09 76.0645 28.7188 73.8926 29.2824 71.7877H29.4357C29.4212 73.3436 29.4329 74.9481 29.4732 76.6015C29.5138 78.2556 29.5674 79.8977 29.6365 81.5285C29.7045 83.1592 29.774 84.7185 29.8433 86.2064L30.5052 100.217Z" fill="#292828"/>
<path d="M63.767 89.572C63.8204 89.2896 63.8668 88.9252 63.9072 88.4781C63.9476 88.031 63.9678 87.5131 63.9708 86.9259C63.978 85.5421 63.7974 84.1461 63.4316 82.7382C63.0645 81.3295 62.4676 80.0313 61.6423 78.8421C60.8154 77.6536 59.717 76.6956 58.3438 75.969C56.9721 75.2425 55.2853 74.8689 53.282 74.8491C51.2947 74.8647 49.5485 75.2374 48.0394 75.9677C46.5305 76.697 45.2657 77.6895 44.2481 78.944C43.2277 80.1984 42.4603 81.6204 41.9443 83.2101C41.4298 84.7998 41.1695 86.4626 41.168 88.198C41.1781 90.7421 41.687 92.9487 42.6931 94.8193C43.7018 96.6893 45.1559 98.1381 47.058 99.1655C48.9589 100.193 51.2541 100.713 53.9426 100.727C55.7291 100.719 57.3494 100.571 58.8036 100.282C60.2591 99.9931 61.5237 99.6154 62.5962 99.1483L61.6798 94.8696C60.7288 95.2063 59.7039 95.4758 58.6084 95.6789C57.5097 95.8813 56.2436 95.9851 54.8084 95.9908C53.4511 95.9945 52.2067 95.7715 51.0765 95.3223C49.9446 94.873 49.0283 94.1755 48.3273 93.2281C47.6246 92.2817 47.2402 91.0626 47.1722 89.572H63.767ZM47.1722 85.1962C47.2344 84.5465 47.3876 83.8717 47.6349 83.1713C47.8821 82.4708 48.2346 81.8156 48.6929 81.2044C49.1525 80.5931 49.7307 80.0966 50.4302 79.7151C51.1284 79.3338 51.9594 79.1373 52.925 79.1252C53.9628 79.1392 54.8199 79.3479 55.4964 79.7513C56.1728 80.1545 56.7004 80.6709 57.0806 81.2999C57.4593 81.9288 57.7238 82.5882 57.871 83.2789C58.0201 83.9694 58.0851 84.6082 58.0664 85.1962H47.1722Z" fill="#292828"/>
<path d="M70.3999 75.4087V85.3906C70.41 86.9832 70.3696 88.3728 70.2799 89.5592C70.1903 90.7455 69.9995 91.7538 69.7061 92.5843C69.4141 93.4142 68.9661 94.0906 68.3634 94.6126C68.0525 94.8978 67.6681 95.1448 67.2113 95.3527C66.7546 95.5608 66.2559 95.705 65.7153 95.7858L66.3773 100.677C67.8401 100.678 69.0658 100.51 70.0573 100.174C71.0476 99.8376 71.8914 99.326 72.5896 98.6391C73.564 97.9081 74.3197 96.936 74.8517 95.7213C75.3866 94.5079 75.755 93.0555 75.9618 91.366C76.1671 89.676 76.2654 87.7522 76.2551 85.5951V80.2442H83.0342V100.217H89.297V75.4087H70.3999Z" fill="#292828"/>
<path d="M98.9118 75.4094V81.624C98.9118 83.1783 98.8092 84.7043 98.5996 86.2022C98.3915 87.6991 98.072 89.1615 97.6412 90.5893C97.3825 91.4856 97.0443 92.3665 96.6281 93.2317C96.2104 94.0962 95.7333 94.9133 95.1943 95.6832L93.0044 95.836L93.2083 108.163H97.9969L98.3033 100.217H114.602L114.805 108.163H119.594L119.901 95.7928L117.248 95.691V75.4094H98.9118ZM104.406 80.0448H111.136V95.5813H101.506C101.865 94.9155 102.202 94.2087 102.517 93.4609C102.832 92.7124 103.105 91.942 103.338 91.1496C103.672 89.9469 103.932 88.6967 104.12 87.3992C104.306 86.1009 104.401 84.787 104.406 83.4578V80.0448Z" fill="#292828"/>
<path d="M143.832 85.3396C143.841 83.9643 143.68 82.6512 143.349 81.4004C143.018 80.1488 142.466 79.0318 141.693 78.0489C140.918 77.0664 139.869 76.2901 138.545 75.7214C137.222 75.1518 135.57 74.861 133.593 74.8491C132.282 74.8548 131.062 74.9609 129.935 75.1674C128.806 75.3733 127.794 75.6415 126.898 75.9718C126.002 76.3023 125.244 76.6574 124.63 77.0366L125.851 81.1096C126.711 80.5648 127.729 80.1255 128.901 79.7909C130.073 79.4563 131.28 79.2837 132.523 79.2743C133.61 79.2844 134.489 79.4335 135.16 79.7223C135.829 80.0109 136.338 80.3802 136.687 80.8295C137.034 81.2787 137.27 81.7499 137.393 82.2423C137.516 82.7354 137.574 83.1903 137.565 83.6077V84.0153C134.498 83.9997 131.867 84.342 129.675 85.0417C127.483 85.7422 125.801 86.7901 124.626 88.1867C123.452 89.5833 122.859 91.3194 122.848 93.3944C122.849 94.3466 123.02 95.2615 123.362 96.1394C123.705 97.0168 124.208 97.8043 124.871 98.5006C125.535 99.1965 126.35 99.7476 127.316 100.154C128.283 100.561 129.39 100.768 130.639 100.777C132.278 100.76 133.723 100.451 134.975 99.8488C136.225 99.2467 137.225 98.4543 137.973 97.471H138.126L138.584 100.217H144.24C144.088 99.4407 143.983 98.5357 143.92 97.5042C143.86 96.4719 143.829 95.3896 143.832 94.2561V85.3396ZM137.718 91.5076C137.721 91.7367 137.715 91.966 137.699 92.1958C137.683 92.4251 137.639 92.6551 137.565 92.8842C137.36 93.4884 137.03 94.0482 136.579 94.564C136.128 95.0789 135.569 95.495 134.902 95.8125C134.235 96.129 133.476 96.2922 132.626 96.3016C131.957 96.3031 131.354 96.1756 130.819 95.9201C130.283 95.6641 129.858 95.272 129.543 94.745C129.229 94.2173 129.067 93.5466 129.06 92.7315C129.072 91.7934 129.315 91.0187 129.79 90.4075C130.266 89.7962 130.912 89.3192 131.728 88.977C132.544 88.6343 133.466 88.3967 134.496 88.2637C135.527 88.1307 136.599 88.0727 137.718 88.0911V91.5076Z" fill="#292828"/>
<path d="M150.387 75.4087V100.217H156.651V89.7707H166.228V100.217H172.493V75.4087H166.228V84.8848H156.651V75.4087H150.387Z" fill="#292828"/>
<path d="M198.416 85.3396C198.425 83.9643 198.265 82.6512 197.934 81.4004C197.604 80.1488 197.05 79.0318 196.277 78.0489C195.503 77.0664 194.453 76.2901 193.129 75.7214C191.807 75.1518 190.155 74.861 188.177 74.8491C186.866 74.8548 185.646 74.9609 184.519 75.1674C183.39 75.3733 182.378 75.6415 181.482 75.9718C180.586 76.3023 179.83 76.6574 179.214 77.0366L180.436 81.1096C181.297 80.5648 182.313 80.1255 183.485 79.7909C184.658 79.4563 185.865 79.2837 187.108 79.2743C188.194 79.2844 189.073 79.4335 189.744 79.7223C190.413 80.0109 190.923 80.3802 191.272 80.8295C191.62 81.2787 191.854 81.7499 191.978 82.2423C192.1 82.7354 192.158 83.1903 192.149 83.6077V84.0153C189.082 83.9997 186.453 84.342 184.26 85.0417C182.067 85.7422 180.385 86.7901 179.21 88.1867C178.038 89.5833 177.444 91.3194 177.432 93.3944C177.434 94.3466 177.606 95.2615 177.947 96.1394C178.289 97.0168 178.792 97.8043 179.456 98.5006C180.119 99.1965 180.934 99.7476 181.901 100.154C182.867 100.561 183.974 100.768 185.224 100.777C186.862 100.76 188.307 100.451 189.559 99.8488C190.809 99.2467 191.809 98.4543 192.557 97.471H192.71L193.168 100.217H198.824C198.674 99.4407 198.567 98.5357 198.506 97.5042C198.444 96.4719 198.413 95.3896 198.416 94.2561V85.3396ZM192.302 91.5076C192.305 91.7367 192.299 91.966 192.284 92.1958C192.268 92.4251 192.223 92.6551 192.149 92.8842C191.944 93.4884 191.614 94.0482 191.163 94.564C190.712 95.0789 190.153 95.495 189.487 95.8125C188.82 96.129 188.061 96.2922 187.21 96.3016C186.541 96.3031 185.938 96.1756 185.403 95.9201C184.867 95.6641 184.442 95.272 184.129 94.745C183.813 94.2173 183.652 93.5466 183.644 92.7315C183.656 91.7934 183.899 91.0187 184.374 90.4075C184.85 89.7962 185.496 89.3192 186.313 88.977C187.128 88.6343 188.051 88.3967 189.081 88.2637C190.111 88.1307 191.185 88.0727 192.302 88.0911V91.5076Z" fill="#292828"/>
</svg>
